<?xml version="1.0" standalone="no"?>
<!DOCTYPE svg PUBLIC "-//W3C//DTD SVG 20010904//EN"
 "http://www.w3.org/TR/2001/REC-SVG-20010904/DTD/svg10.dtd">
<svg version="1.0" xmlns="http://www.w3.org/2000/svg"
 width="256.000000pt" height="256.000000pt" viewBox="0 0 256.000000 256.000000"
 preserveAspectRatio="xMidYMid meet">
<metadata>
Created by potrace 1.14, written by Peter Selinger 2001-2017
</metadata>
<g transform="translate(0.000000,256.000000) scale(0.100000,-0.100000)"
fill="#000000" stroke="none">
<path d="M1208 2485 c-2 -1 -34 -5 -73 -8 -186 -17 -414 -107 -576 -229 -239
-180 -403 -440 -464 -738 -23 -112 -24 -325 -2 -441 95 -492 475 -872 964
-965 115 -22 311 -22 428 -1 238 43 443 148 618 316 101 98 168 183 228 295
33 61 39 80 28 86 -9 6 -23 -10 -51 -62 -107 -196 -248 -344 -438 -458 -112
-67 -267 -126 -382 -145 -18 -3 -45 -8 -60 -11 -37 -7 -244 -7 -298 0 -468 66
-847 389 -975 831 -49 170 -60 299 -40 475 73 628 657 1087 1295 1016 375 -41
712 -272 897 -613 29 -53 43 -69 52 -63 18 11 -48 136 -126 237 -182 240 -433
396 -738 459 -61 12 -278 27 -287 19z"/>
<path d="M668 2065 c5 -11 8 -28 7 -37 -2 -12 2 -15 13 -10 10 4 12 7 4 10 -7
2 -10 7 -7 11 2 5 -2 17 -11 27 -15 18 -15 18 -6 -1z"/>
<path d="M800 1958 c0 -9 7 -19 16 -22 15 -6 15 -4 3 11 -7 10 -15 20 -16 22
-2 2 -3 -3 -3 -11z"/>
<path d="M560 1904 c0 -20 27 -37 36 -23 4 7 3 9 -4 5 -6 -3 -15 2 -21 11 -6
10 -11 13 -11 7z"/>
<path d="M749 1843 c-13 -16 -12 -17 4 -4 9 7 17 15 17 17 0 8 -8 3 -21 -13z"/>
<path d="M615 1831 c-3 -5 -2 -12 3 -15 5 -3 9 1 9 9 0 17 -3 19 -12 6z"/>
<path d="M768 1799 c2 -16 7 -31 11 -34 4 -2 5 9 3 26 -2 16 -7 31 -11 34 -4
2 -5 -9 -3 -26z"/>
<path d="M907 1809 c4 -13 8 -18 11 -10 2 7 -1 18 -6 23 -8 8 -9 4 -5 -13z"/>
<path d="M939 1804 c6 -12 8 -24 4 -27 -3 -4 -1 -13 5 -20 7 -8 8 -18 4 -22
-4 -5 -1 -5 6 -1 10 6 10 11 2 21 -7 8 -9 18 -6 23 3 5 -1 18 -10 28 -14 18
-15 18 -5 -2z"/>
<path d="M598 1799 c6 -9 9 -18 6 -22 -3 -3 1 -4 10 -3 8 1 18 5 21 9 3 4 2 5
-2 2 -3 -3 -16 3 -27 12 -15 14 -18 14 -8 2z"/>
<path d="M654 1786 c1 -8 5 -18 8 -22 4 -3 5 1 4 10 -1 8 -5 18 -8 22 -4 3 -5
-1 -4 -10z"/>
<path d="M830 1759 c0 -5 5 -7 10 -4 6 3 10 8 10 11 0 2 -4 4 -10 4 -5 0 -10
-5 -10 -11z"/>
<path d="M766 1739 c20 -23 24 -23 24 -5 0 7 -9 16 -21 19 -20 5 -20 5 -3 -14z"/>
<path d="M813 1743 c3 -5 -2 -15 -13 -23 -10 -7 -16 -20 -13 -28 3 -8 0 -18
-8 -23 -11 -7 -11 -9 4 -9 9 0 16 -3 15 -7 0 -5 2 -16 7 -27 5 -11 3 -21 -5
-26 -9 -6 -7 -10 9 -15 11 -3 21 -11 21 -16 0 -6 5 -7 11 -4 6 5 4 11 -6 19
-9 6 -15 16 -14 21 1 6 -3 23 -9 38 -16 37 -15 48 3 74 11 16 12 24 4 29 -7 4
-9 3 -6 -3z"/>
<path d="M1027 1685 c-6 -15 10 -32 20 -21 4 3 1 6 -5 6 -6 0 -9 7 -6 15 4 8
4 15 1 15 -3 0 -7 -7 -10 -15z"/>
<path d="M1150 1684 c0 -8 5 -12 10 -9 6 4 8 11 5 16 -9 14 -15 11 -15 -7z"/>
<path d="M590 1645 c22 -24 30 -29 30 -22 0 8 -38 47 -45 47 -5 0 2 -11 15
-25z"/>
<path d="M1070 1651 c0 -25 6 -27 13 -6 4 8 2 17 -3 20 -6 4 -10 -3 -10 -14z"/>
<path d="M1213 1640 c1 -21 10 -18 13 5 1 8 -2 15 -6 15 -5 0 -8 -9 -7 -20z"/>
<path d="M910 1640 c0 -5 5 -10 11 -10 5 0 7 5 4 10 -3 6 -8 10 -11 10 -2 0
-4 -4 -4 -10z"/>
<path d="M2356 1639 c-2 -8 -12 -41 -21 -74 -17 -59 -73 -198 -121 -303 -52
-111 -51 -210 2 -280 36 -47 79 -65 151 -65 51 0 69 5 100 26 103 72 107 182
14 381 -50 107 -77 177 -96 256 -18 71 -22 80 -29 59z m46 -179 c17 -52 45
-125 63 -161 48 -95 68 -172 60 -227 -9 -63 -28 -90 -81 -113 -127 -57 -240 9
-236 138 2 74 15 118 83 279 32 78 59 148 59 157 0 8 3 23 7 33 5 14 8 15 11
3 2 -7 17 -57 34 -109z"/>
<path d="M2289 971 c24 -22 56 -28 65 -12 3 5 -7 11 -22 14 -15 3 -36 9 -47
12 -18 6 -17 4 4 -14z"/>
<path d="M853 1615 c-3 -9 -3 -18 -1 -21 3 -3 8 4 11 16 6 23 -1 27 -10 5z"/>
<path d="M1361 1574 c0 -11 3 -14 6 -6 3 7 2 16 -1 19 -3 4 -6 -2 -5 -13z"/>
<path d="M879 1563 c-13 -16 -12 -17 4 -4 9 7 17 15 17 17 0 8 -8 3 -21 -13z"/>
<path d="M1170 1558 c0 -4 4 -8 9 -8 6 0 12 4 15 8 3 5 -1 9 -9 9 -8 0 -15 -4
-15 -9z"/>
<path d="M1406 1545 c4 -8 11 -15 16 -15 6 0 5 6 -2 15 -7 8 -14 15 -16 15 -2
0 -1 -7 2 -15z"/>
<path d="M570 1543 c0 -1 15 -10 33 -18 23 -11 27 -12 15 -2 -10 8 -16 16 -13
18 2 3 -5 5 -15 5 -11 0 -20 -1 -20 -3z"/>
<path d="M668 1543 c7 -3 16 -2 19 1 4 3 -2 6 -13 5 -11 0 -14 -3 -6 -6z"/>
<path d="M840 1543 c0 -5 9 -23 20 -41 24 -39 25 -46 4 -38 -8 3 -12 2 -9 -4
3 -6 14 -10 23 -10 19 0 45 -47 35 -64 -3 -6 -3 -8 1 -4 9 8 57 -36 60 -55 1
-7 19 -29 40 -49 22 -22 35 -42 30 -49 -4 -8 -3 -9 4 -5 6 4 9 13 5 21 -3 9 1
23 8 33 13 15 12 16 -3 4 -15 -12 -21 -10 -43 12 -14 14 -25 29 -25 35 0 5
-13 22 -30 38 -16 15 -30 33 -30 40 0 6 -5 13 -10 15 -6 2 -12 13 -13 25 0 12
-4 20 -8 18 -3 -3 -17 16 -29 40 -22 44 -30 53 -30 38z"/>
<path d="M1355 1541 c-3 -5 -2 -12 3 -15 5 -3 9 1 9 9 0 17 -3 19 -12 6z"/>
<path d="M1167 1533 c-10 -9 -9 -23 1 -23 5 0 9 7 9 15 0 17 -1 18 -10 8z"/>
<path d="M1085 1520 c-3 -5 -1 -10 4 -10 6 0 11 5 11 10 0 6 -2 10 -4 10 -3 0
-8 -4 -11 -10z"/>
<path d="M1399 1503 c-1 -5 -1 -12 0 -17 1 -4 -4 -16 -11 -25 -12 -14 -11 -14
4 -3 9 7 16 22 15 33 -1 19 -6 26 -8 12z"/>
<path d="M1155 1491 c-3 -5 -2 -12 3 -15 5 -3 9 1 9 9 0 17 -3 19 -12 6z"/>
<path d="M750 1482 c0 -5 7 -9 15 -9 8 0 12 4 9 9 -3 4 -9 8 -15 8 -5 0 -9 -4
-9 -8z"/>
<path d="M1063 1472 c-9 -15 -8 -19 3 -19 8 0 12 3 9 5 -3 3 0 11 6 19 6 7 7
13 3 13 -5 0 -14 -8 -21 -18z"/>
<path d="M1503 1471 c0 -11 5 -18 9 -15 4 3 5 11 1 19 -7 21 -12 19 -10 -4z"/>
<path d="M595 1470 c3 -5 11 -10 16 -10 6 0 7 5 4 10 -3 6 -11 10 -16 10 -6 0
-7 -4 -4 -10z"/>
<path d="M630 1459 c0 -5 5 -7 10 -4 6 3 10 8 10 11 0 2 -4 4 -10 4 -5 0 -10
-5 -10 -11z"/>
<path d="M1132 1450 c-9 -15 -9 -21 1 -26 6 -4 9 -4 5 1 -4 4 -3 14 4 22 6 7
9 15 7 18 -3 2 -10 -4 -17 -15z"/>
<path d="M1036 1422 c-3 -5 1 -9 9 -9 8 0 12 4 9 9 -3 4 -7 8 -9 8 -2 0 -6 -4
-9 -8z"/>
<path d="M1366 1422 c-3 -5 1 -9 9 -9 8 0 12 4 9 9 -3 4 -7 8 -9 8 -2 0 -6 -4
-9 -8z"/>
<path d="M1215 1399 c-4 -6 -5 -12 -2 -15 2 -3 7 2 10 11 7 17 1 20 -8 4z"/>
<path d="M1671 1394 c0 -11 3 -14 6 -6 3 7 2 16 -1 19 -3 4 -6 -2 -5 -13z"/>
<path d="M1020 1391 c0 -6 4 -13 10 -16 6 -3 7 1 4 9 -7 18 -14 21 -14 7z"/>
<path d="M630 1379 c8 -5 24 -14 35 -20 18 -9 19 -9 3 4 -10 8 -16 16 -13 18
2 3 -6 6 -18 6 -17 2 -19 0 -7 -8z"/>
<path d="M1006 1362 c-3 -5 1 -9 9 -9 8 0 12 4 9 9 -3 4 -7 8 -9 8 -2 0 -6 -4
-9 -8z"/>
<path d="M1076 1333 c-4 -9 -3 -20 1 -24 4 -4 9 3 9 17 2 28 -1 31 -10 7z"/>
<path d="M1176 1338 c3 -5 10 -6 15 -3 13 9 11 12 -6 12 -8 0 -12 -4 -9 -9z"/>
<path d="M895 1330 c3 -5 8 -10 11 -10 2 0 4 5 4 10 0 6 -5 10 -11 10 -5 0 -7
-4 -4 -10z"/>
<path d="M830 1319 c0 -5 5 -7 10 -4 6 3 10 8 10 11 0 2 -4 4 -10 4 -5 0 -10
-5 -10 -11z"/>
<path d="M1150 1319 c0 -5 5 -7 10 -4 6 3 10 8 10 11 0 2 -4 4 -10 4 -5 0 -10
-5 -10 -11z"/>
<path d="M651 1271 c-11 -7 -9 -10 8 -16 13 -4 25 -4 28 -1 4 3 -1 6 -11 6 -9
0 -14 5 -11 10 8 12 4 12 -14 1z"/>
<path d="M1853 1235 c0 -7 6 -11 14 -8 7 3 13 6 13 8 0 2 -6 5 -13 8 -8 3 -14
-1 -14 -8z"/>
<path d="M1103 1224 c-4 -12 -7 -13 -14 -3 -4 8 -11 11 -14 8 -3 -4 1 -12 9
-18 12 -10 17 -8 26 8 6 12 8 21 5 21 -3 0 -8 -7 -12 -16z"/>
<path d="M1776 1201 c-14 -15 -15 -21 -4 -27 7 -4 10 -3 5 1 -4 5 0 17 10 27
9 10 14 18 11 18 -3 0 -13 -9 -22 -19z"/>
<path d="M1104 1192 c-6 -4 -11 -14 -11 -24 0 -13 4 -14 18 -5 15 9 23 7 43
-12 14 -13 23 -28 20 -32 -3 -5 2 -9 11 -9 23 0 17 10 -30 52 -23 20 -46 34
-51 30z"/>
<path d="M710 1149 c0 -15 18 -19 23 -6 3 8 -1 14 -9 14 -8 0 -14 -4 -14 -8z"/>
<path d="M1795 1130 c-4 -6 -10 -8 -15 -5 -4 3 -14 -3 -21 -13 -12 -15 -12
-16 2 -5 9 7 18 11 21 8 3 -3 11 1 18 10 7 8 10 15 7 15 -3 0 -9 -5 -12 -10z"/>
<path d="M1046 1115 c-3 -9 -11 -13 -17 -9 -8 5 -9 3 -4 -5 6 -10 11 -9 23 3
9 8 13 18 10 21 -3 3 -8 -1 -12 -10z"/>
<path d="M1224 1085 c6 -13 12 -22 14 -20 2 2 19 -5 38 -16 19 -10 34 -15 34
-10 0 6 -9 13 -20 16 -11 4 -18 11 -15 16 3 5 -1 6 -9 3 -9 -3 -16 -2 -16 3 0
4 -8 13 -19 20 -17 11 -18 10 -7 -12z"/>
<path d="M1465 1069 c-9 -17 -15 -33 -13 -35 3 -2 12 12 21 31 21 43 13 47 -8
4z"/>
<path d="M713 1074 c8 -9 47 -13 51 -6 2 4 -9 8 -25 8 -17 1 -28 0 -26 -2z"/>
<path d="M1709 1043 c-13 -16 -12 -17 4 -4 16 13 21 21 13 21 -2 0 -10 -8 -17
-17z"/>
<path d="M959 1033 c-13 -16 -12 -17 4 -4 9 7 17 15 17 17 0 8 -8 3 -21 -13z"/>
<path d="M1315 1020 c-3 -6 -1 -10 5 -10 21 0 70 -41 64 -52 -4 -6 -2 -8 4 -4
6 3 15 -2 21 -11 5 -10 13 -14 17 -10 4 4 -8 22 -27 40 -47 43 -76 59 -84 47z"/>
<path d="M1525 980 c3 -5 8 -10 11 -10 2 0 4 5 4 10 0 6 -5 10 -11 10 -5 0 -7
-4 -4 -10z"/>
<path d="M885 971 c-3 -5 -2 -12 3 -15 5 -3 9 1 9 9 0 17 -3 19 -12 6z"/>
<path d="M822 943 c-6 -3 -9 -9 -6 -15 4 -6 9 -5 14 3 7 10 12 10 23 1 10 -9
14 -9 14 1 0 13 -22 18 -45 10z"/>
<path d="M1335 940 c-3 -5 -1 -10 4 -10 6 0 11 5 11 10 0 6 -2 10 -4 10 -3 0
-8 -4 -11 -10z"/>
<path d="M1295 929 c-4 -6 -5 -12 -2 -15 2 -3 7 2 10 11 7 17 1 20 -8 4z"/>
<path d="M1464 917 c16 -14 26 -30 22 -35 -4 -7 1 -10 12 -7 11 2 33 -9 51
-25 17 -16 31 -26 31 -23 0 4 7 -2 15 -13 8 -10 15 -14 15 -8 0 12 -38 47 -69
64 -12 6 -18 16 -15 22 5 7 2 8 -5 3 -7 -4 -22 1 -34 12 -12 11 -29 23 -37 27
-8 4 -2 -4 14 -17z"/>
<path d="M1233 885 c0 -8 4 -12 9 -9 4 3 8 9 8 15 0 5 -4 9 -8 9 -5 0 -9 -7
-9 -15z"/>
<path d="M885 871 l-30 -7 27 -5 c18 -4 29 -1 32 7 3 8 4 13 3 13 -1 -1 -15
-4 -32 -8z"/>
<path d="M990 861 c0 -7 -5 -9 -12 -5 -7 5 -8 3 -3 -5 5 -9 10 -10 18 -2 6 6
8 14 4 18 -4 3 -7 1 -7 -6z"/>
<path d="M1386 858 c3 -5 10 -6 15 -3 13 9 11 12 -6 12 -8 0 -12 -4 -9 -9z"/>
<path d="M1349 843 c-12 -16 -12 -17 2 -6 9 7 20 9 24 5 5 -4 5 -1 1 6 -9 16
-11 15 -27 -5z"/>
<path d="M940 830 c-23 -7 -23 -8 -3 -9 12 -1 25 4 28 9 3 6 5 10 3 9 -2 -1
-14 -5 -28 -9z"/>
<path d="M1489 793 c-13 -16 -12 -17 4 -4 16 13 21 21 13 21 -2 0 -10 -8 -17
-17z"/>
<path d="M1640 790 c14 -10 26 -17 29 -15 6 7 -27 35 -41 35 -7 0 -2 -9 12
-20z"/>
<path d="M999 777 c7 -7 14 -8 21 -1 6 6 2 10 -12 11 -16 2 -18 -1 -9 -10z"/>
<path d="M1676 761 c-4 -6 0 -11 10 -11 13 0 14 -3 4 -15 -7 -8 -16 -13 -19
-10 -4 2 -8 -3 -8 -11 0 -11 5 -10 21 5 12 10 30 21 41 24 20 5 20 5 0 6 -12
0 -26 6 -32 12 -8 8 -13 8 -17 0z"/>
<path d="M1256 713 c-6 -14 -5 -15 5 -6 7 7 10 15 7 18 -3 3 -9 -2 -12 -12z"/>
<path d="M1750 726 c0 -2 7 -7 16 -10 8 -3 12 -2 9 4 -6 10 -25 14 -25 6z"/>
<path d="M1810 696 c0 -3 9 -10 20 -16 11 -6 20 -8 20 -6 0 3 -9 10 -20 16
-11 6 -20 8 -20 6z"/>
<path d="M1861 666 c2 -2 15 -9 29 -15 24 -11 24 -11 6 3 -16 13 -49 24 -35
12z"/>
<path d="M1920 636 c0 -2 7 -7 16 -10 8 -3 12 -2 9 4 -6 10 -25 14 -25 6z"/>
<path d="M1100 620 c-12 -7 -10 -9 8 -7 12 0 22 5 22 9 0 11 -12 10 -30 -2z"/>
<path d="M1250 522 c0 -4 9 -8 20 -9 11 -1 20 2 20 5 0 4 -9 8 -20 9 -11 1
-20 -2 -20 -5z"/>
<path d="M1465 459 c-11 -16 -1 -19 13 -3 7 8 8 14 3 14 -5 0 -13 -5 -16 -11z"/>
</g>
</svg>
